<svg width="147" height="19" viewBox="0 0 147 19" fill="none" xmlns="http://www.w3.org/2000/svg">
<path d="M0.992 18V1.2H4.88V18H0.992ZM8.867 18V1.2H12.083L21.995 13.296H20.435V1.2H24.275V18H21.083L11.147 5.904H12.707V18H8.867ZM28.2498 18V1.2H31.4658L41.3778 13.296H39.8178V1.2H43.6578V18H40.4658L30.5298 5.904H32.0898V18H28.2498ZM55.7926 18.288C54.4646 18.288 53.2326 18.072 52.0966 17.64C50.9766 17.208 50.0006 16.6 49.1686 15.816C48.3526 15.032 47.7126 14.112 47.2486 13.056C46.8006 12 46.5766 10.848 46.5766 9.6C46.5766 8.352 46.8006 7.2 47.2486 6.144C47.7126 5.088 48.3606 4.168 49.1926 3.384C50.0246 2.6 51.0006 1.992 52.1206 1.56C53.2406 1.128 54.4566 0.912 55.7686 0.912C57.0966 0.912 58.3126 1.128 59.4166 1.56C60.5366 1.992 61.5046 2.6 62.3206 3.384C63.1526 4.168 63.8006 5.088 64.2646 6.144C64.7286 7.184 64.9606 8.336 64.9606 9.6C64.9606 10.848 64.7286 12.008 64.2646 13.08C63.8006 14.136 63.1526 15.056 62.3206 15.84C61.5046 16.608 60.5366 17.208 59.4166 17.64C58.3126 18.072 57.1046 18.288 55.7926 18.288ZM55.7686 14.976C56.5206 14.976 57.2086 14.848 57.8326 14.592C58.4726 14.336 59.0326 13.968 59.5126 13.488C59.9926 13.008 60.3606 12.44 60.6166 11.784C60.8886 11.128 61.0246 10.4 61.0246 9.6C61.0246 8.8 60.8886 8.072 60.6166 7.416C60.3606 6.76 59.9926 6.192 59.5126 5.712C59.0486 5.232 58.4966 4.864 57.8566 4.608C57.2166 4.352 56.5206 4.224 55.7686 4.224C55.0166 4.224 54.3206 4.352 53.6806 4.608C53.0566 4.864 52.5046 5.232 52.0246 5.712C51.5446 6.192 51.1686 6.76 50.8966 7.416C50.6406 8.072 50.5126 8.8 50.5126 9.6C50.5126 10.384 50.6406 11.112 50.8966 11.784C51.1686 12.44 51.5366 13.008 52.0006 13.488C52.4806 13.968 53.0406 14.336 53.6806 14.592C54.3206 14.848 55.0166 14.976 55.7686 14.976ZM67.8826 18V1.2H71.0986L78.2506 13.056H76.5466L83.5786 1.2H86.7706L86.8186 18H83.1706L83.1466 6.792H83.8186L78.2026 16.224H76.4506L70.7146 6.792H71.5306V18H67.8826ZM88.5965 18L96.0845 1.2H99.9245L107.437 18H103.357L97.2125 3.168H98.7485L92.5805 18H88.5965ZM92.3405 14.4L93.3725 11.448H102.013L103.069 14.4H92.3405Z" fill="white"/>
<path d="M110.332 18.192C109.692 18.192 109.14 17.976 108.676 17.544C108.228 17.096 108.004 16.528 108.004 15.84C108.004 15.152 108.228 14.6 108.676 14.184C109.14 13.752 109.692 13.536 110.332 13.536C110.988 13.536 111.54 13.752 111.988 14.184C112.436 14.6 112.66 15.152 112.66 15.84C112.66 16.528 112.436 17.096 111.988 17.544C111.54 17.976 110.988 18.192 110.332 18.192ZM119.587 18L112.339 1.2H116.539L122.875 16.08H120.403L126.835 1.2H130.699L123.427 18H119.587ZM139.954 18.288C138.658 18.288 137.45 18.08 136.33 17.664C135.226 17.232 134.266 16.624 133.45 15.84C132.634 15.056 131.994 14.136 131.53 13.08C131.082 12.024 130.858 10.864 130.858 9.6C130.858 8.336 131.082 7.176 131.53 6.12C131.994 5.064 132.634 4.144 133.45 3.36C134.282 2.576 135.25 1.976 136.354 1.56C137.458 1.128 138.666 0.912 139.978 0.912C141.434 0.912 142.746 1.168 143.914 1.68C145.098 2.176 146.09 2.912 146.89 3.888L144.394 6.192C143.818 5.536 143.178 5.048 142.474 4.728C141.77 4.392 141.002 4.224 140.17 4.224C139.386 4.224 138.666 4.352 138.01 4.608C137.354 4.864 136.786 5.232 136.306 5.712C135.826 6.192 135.45 6.76 135.178 7.416C134.922 8.072 134.794 8.8 134.794 9.6C134.794 10.4 134.922 11.128 135.178 11.784C135.45 12.44 135.826 13.008 136.306 13.488C136.786 13.968 137.354 14.336 138.01 14.592C138.666 14.848 139.386 14.976 140.17 14.976C141.002 14.976 141.77 14.816 142.474 14.496C143.178 14.16 143.818 13.656 144.394 12.984L146.89 15.288C146.09 16.264 145.098 17.008 143.914 17.52C142.746 18.032 141.426 18.288 139.954 18.288Z" fill="#00B1E9"/>
</svg>
